<svg xmlns="http://www.w3.org/2000/svg" version="1.1" xmlns:xlink="http://www.w3.org/1999/xlink" width="200" height="200"><svg xmlns="http://www.w3.org/2000/svg" version="1.1" xmlns:xlink="http://www.w3.org/1999/xlink" width="200" height="200"><svg t="1769830083395" class="icon" viewBox="0 0 1024 1024" version="1.1" xmlns="http://www.w3.org/2000/svg" p-id="5466" xmlns:xlink="http://www.w3.org/1999/xlink" width="200" height="200"><path d="M993.28 209.2032l-460.8-204.8a51.2 51.2 0 0 0-40.96 0l-460.8 204.8a51.2 51.2 0 0 0 0 93.5936l460.8 204.8a51.2 51.2 0 0 0 41.5744 0l460.8-204.8a51.2 51.2 0 0 0 0-93.5936z" fill="#040000" p-id="5467"></path><path d="M512 768a52.224 52.224 0 0 1-20.48-4.4032l-460.8-204.8a51.2 51.2 0 0 1 40.96-93.5936l440.32 195.584 440.32-195.584a51.2 51.2 0 0 1 40.96 93.5936l-460.8 204.8a51.2 51.2 0 0 1-20.48 4.4032z" fill="#040000" p-id="5468"></path><path d="M512 1024a52.224 52.224 0 0 1-20.48-4.4032l-460.8-204.8a51.2 51.2 0 0 1 40.96-93.5936l440.32 195.584 440.32-195.584a51.2 51.2 0 0 1 40.96 93.5936l-460.8 204.8a51.2 51.2 0 0 1-20.48 4.4032z" fill="#040000" p-id="5469"></path></svg></svg><style>@media (prefers-color-scheme: light) { :root { filter: none; } }
@media (prefers-color-scheme: dark) { :root { filter: invert(100%); } }
</style></svg>